<?xml version="1.0" encoding="UTF-8"?>
<svg width="17px" height="17px" viewBox="0 0 17 17" version="1.1" xmlns="http://www.w3.org/2000/svg" xmlns:xlink="http://www.w3.org/1999/xlink">
    <!-- Generator: Sketch 55.1 (78136) - https://sketchapp.com -->
    <title></title>
    <desc>Created with Sketch.</desc>
    <g id="design" stroke="none" stroke-width="1" fill="none" fill-rule="evenodd">
        <g id="Artboard" transform="translate(-38.000000, -458.000000)" fill="#0CB1E0" fill-rule="nonzero">
            <path d="M46.5,458 C48.0309216,458 49.4475741,458.382725 50.75,459.148185 C52.0524259,459.913646 53.0863537,460.947574 53.8518145,462.25 C54.6172753,463.552426 55,464.969078 55,466.5 C55,468.030922 54.6172753,469.447574 53.8518145,470.75 C53.0863537,472.052426 52.0524259,473.086354 50.75,473.851815 C49.4475741,474.617275 48.0309216,475 46.5,475 C44.9690784,475 43.5524259,474.617275 42.25,473.851815 C40.9475741,473.086354 39.9136463,472.052426 39.1481855,470.75 C38.3827247,469.447574 38,468.030922 38,466.5 C38,464.969078 38.3827247,463.552426 39.1481855,462.25 C39.9136463,460.947574 40.9475741,459.913646 42.25,459.148185 C43.5524259,458.382725 44.9690784,458 46.5,458 Z M46.5,461.770161 C46.1115572,461.770161 45.774531,461.912969 45.4889113,462.198589 C45.2032916,462.484208 45.0604839,462.821235 45.0604839,463.209677 C45.0604839,463.59812 45.2032916,463.935146 45.4889113,464.220766 C45.774531,464.506386 46.1115572,464.649194 46.5,464.649194 C46.8884428,464.649194 47.225469,464.506386 47.5110887,464.220766 C47.7967084,463.935146 47.9395161,463.59812 47.9395161,463.209677 C47.9395161,462.821235 47.7967084,462.484208 47.5110887,462.198589 C47.225469,461.912969 46.8884428,461.770161 46.5,461.770161 Z M48.4193548,470.475806 L48.4193548,469.653226 C48.4193548,469.538978 48.3793687,469.441869 48.2993952,469.361895 C48.2194216,469.281922 48.1223124,469.241935 48.0080645,469.241935 L47.5967742,469.241935 L47.5967742,465.814516 C47.5967742,465.700268 47.556788,465.603159 47.4768145,465.523185 C47.396841,465.443212 47.2997318,465.403226 47.1854839,465.403226 L44.9919355,465.403226 C44.8776876,465.403226 44.7805784,465.443212 44.7006048,465.523185 C44.6206313,465.603159 44.5806452,465.700268 44.5806452,465.814516 L44.5806452,466.637097 C44.5806452,466.751345 44.6206313,466.848454 44.7006048,466.928427 C44.7805784,467.008401 44.8776876,467.048387 44.9919355,467.048387 L45.4032258,467.048387 L45.4032258,469.241935 L44.9919355,469.241935 C44.8776876,469.241935 44.7805784,469.281922 44.7006048,469.361895 C44.6206313,469.441869 44.5806452,469.538978 44.5806452,469.653226 L44.5806452,470.475806 C44.5806452,470.590054 44.6206313,470.687164 44.7006048,470.767137 C44.7805784,470.847111 44.8776876,470.887097 44.9919355,470.887097 L48.0080645,470.887097 C48.1223124,470.887097 48.2194216,470.847111 48.2993952,470.767137 C48.3793687,470.687164 48.4193548,470.590054 48.4193548,470.475806 Z" id=""></path>
        </g>
    </g>
</svg>