<svg id="Layer_9" data-name="Layer 9" xmlns="http://www.w3.org/2000/svg" viewBox="0 0 200 200"><title>calendar</title><path d="M177.79,20.46H148.66V9.86a2.27,2.27,0,1,0-4.54,0v10.6H55.87V9.76a2.27,2.27,0,1,0-4.53,0v10.7H22.21A16.3,16.3,0,0,0,6,36.76V176.1a16.3,16.3,0,0,0,16.21,16.29H177.79A16.3,16.3,0,0,0,194,176.1V36.76A16.3,16.3,0,0,0,177.79,20.46ZM22.21,25H51.33V41a2.27,2.27,0,1,0,4.53,0V25h88.25V41a2.27,2.27,0,1,0,4.54,0V25h29.14a11.71,11.71,0,0,1,11.66,11.73V61.09a2.25,2.25,0,0,0-2.06-1.35h-175a2.23,2.23,0,0,0-1.83,1v-24A11.72,11.72,0,0,1,22.21,25ZM177.79,187.83H22.21A11.71,11.71,0,0,1,10.54,176.1V63.3a2.23,2.23,0,0,0,1.83,1h175A2.26,2.26,0,0,0,189.46,63V176.1A11.71,11.71,0,0,1,177.79,187.83Z" fill="#333"/><path d="M136.26,111l-21.74-6.1L102,86a2.26,2.26,0,0,0-3.78,0L85.79,104.86,64.05,111a2.28,2.28,0,0,0-1.17,3.61l14,17.79L76,155A2.27,2.27,0,0,0,79,157.27l21.14-7.92,21.15,7.92a2.27,2.27,0,0,0,3.05-2.23l-1-22.67,14-17.79a2.27,2.27,0,0,0-1.17-3.61Zm-16.93,19.23a2.28,2.28,0,0,0-.49,1.51l.85,20.09-18.74-7a2.28,2.28,0,0,0-1.59,0l-18.74,7,.84-20.08a2.28,2.28,0,0,0-.49-1.51L68.56,114.43,87.82,109a2.29,2.29,0,0,0,1.28-.94l11-16.75,11.06,16.75a2.23,2.23,0,0,0,1.28.94l19.25,5.4Z"/></svg>