<svg id="employees" xmlns="http://www.w3.org/2000/svg" viewBox="0 0 200 200"><title>employees</title><path d="M100.17,86.7a39.55,39.55,0,1,1,39.55-39.55A39.59,39.59,0,0,1,100.17,86.7Zm0-74.25a34.71,34.71,0,1,0,34.71,34.7A34.74,34.74,0,0,0,100.17,12.44Z" fill="#231f20"/><path d="M191.91,193.8H8.42A2.42,2.42,0,0,1,6,191.38a94.17,94.17,0,1,1,188.33,0A2.42,2.42,0,0,1,191.91,193.8ZM10.88,189H189.46a89.32,89.32,0,0,0-178.58,0Z" fill="#231f20"/><path d="M108.05,128.45H91.51a2.42,2.42,0,0,1-2.12-1.25L76.55,104.09a2.42,2.42,0,0,1,4.23-2.35l12.14,21.87h13.74l12.93-21.92a2.42,2.42,0,1,1,4.17,2.46l-13.64,23.11A2.42,2.42,0,0,1,108.05,128.45Z" fill="#231f20"/><path d="M78.67,193.8a2.42,2.42,0,0,1-2.38-2.89l12.83-65.35a2.42,2.42,0,1,1,4.75.93L81,191.85A2.42,2.42,0,0,1,78.67,193.8Z" fill="#231f20"/><path d="M123.57,193.8a2.42,2.42,0,0,1-2.35-1.86l-15.52-65.35a2.42,2.42,0,0,1,4.71-1.12l15.52,65.35a2.42,2.42,0,0,1-1.8,2.92A2.47,2.47,0,0,1,123.57,193.8Z" fill="#231f20"/></svg>