<svg id="Layer_8" data-name="Layer 8" xmlns="http://www.w3.org/2000/svg" viewBox="0 0 200 200"><title>performance</title><path d="M196.29,117.43c0-53.63-43.31-97.1-96.75-97.1S2.79,63.8,2.79,117.43A96.89,96.89,0,0,0,24.9,179.22a2.14,2.14,0,1,0,3.29-2.73,92.48,92.48,0,1,1,142.69,0,2.14,2.14,0,1,0,3.29,2.73h0A96.88,96.88,0,0,0,196.29,117.43Z" fill="#333"/><path d="M173.2,98.15A2.14,2.14,0,0,0,172,94l-57,16.32a16.9,16.9,0,1,0,1.38,6.7,16.62,16.62,0,0,0-.22-2.57ZM108.43,126a12.63,12.63,0,1,1,3.69-8.92A12.52,12.52,0,0,1,108.43,126Z"/><path d="M159.37,84.48a2.14,2.14,0,1,0,3.74-2.07A72.29,72.29,0,0,0,99.73,44.84a2.14,2.14,0,0,0,0,4.29A68,68,0,0,1,159.37,84.48Z"/><path d="M109.33,69.48a2.14,2.14,0,0,0-.45,4.27,33.22,33.22,0,0,1,25.83,16.7,2.13,2.13,0,0,0,2.91.82,2.16,2.16,0,0,0,.82-2.92A37.53,37.53,0,0,0,109.33,69.48Z"/></svg>