<svg id="staff" xmlns="http://www.w3.org/2000/svg" viewBox="0 0 200 200"><title>staff</title><path d="M115.25,195.57H84.47A2.46,2.46,0,0,1,82,193.5L61.1,65a2.46,2.46,0,0,1,2.43-2.86H135A2.46,2.46,0,0,1,137.39,65l-19.7,128.49A2.46,2.46,0,0,1,115.25,195.57Zm-28.69-4.93h26.58L132.09,67.08H66.43Z" fill="#231f20"/><path d="M99.25,49.43a22.17,22.17,0,1,1,22.17-22.17A22.19,22.19,0,0,1,99.25,49.43Zm0-39.41a17.24,17.24,0,1,0,17.24,17.24A17.26,17.26,0,0,0,99.25,10Z" fill="#231f20"/><path d="M172.24,170.09H149.91a2.46,2.46,0,0,1-2.43-2.07L132.3,74.83A2.46,2.46,0,0,1,134.73,72h51.81A2.46,2.46,0,0,1,189,74.8L174.68,168A2.46,2.46,0,0,1,172.24,170.09ZM152,165.16h18.12l13.54-88.27h-46Z" fill="#231f20"/><path d="M160.63,64.09a16.76,16.76,0,1,1,16.76-16.76A16.77,16.77,0,0,1,160.63,64.09Zm0-28.58a11.83,11.83,0,1,0,11.83,11.83A11.84,11.84,0,0,0,160.63,35.5Z" fill="#231f20"/><path d="M50.41,170.09H28.08A2.46,2.46,0,0,1,25.65,168L10.46,74.83A2.46,2.46,0,0,1,12.89,72H64.7a2.46,2.46,0,0,1,2.43,2.84L52.84,168A2.46,2.46,0,0,1,50.41,170.09Zm-20.24-4.93H48.3L61.83,76.89h-46Z" fill="#231f20"/><path d="M38.8,64.09A16.76,16.76,0,1,1,55.55,47.33,16.77,16.77,0,0,1,38.8,64.09Zm0-28.58A11.83,11.83,0,1,0,50.63,47.33,11.84,11.84,0,0,0,38.8,35.5Z" fill="#231f20"/></svg>