<?xml version="1.0" encoding="UTF-8"?>
<svg width="19px" height="17px" viewBox="0 0 19 17" version="1.1" xmlns="http://www.w3.org/2000/svg" xmlns:xlink="http://www.w3.org/1999/xlink">
    <!-- Generator: Sketch 45.2 (43514) - http://www.bohemiancoding.com/sketch -->
    <title>warning</title>
    <desc>Created with Sketch.</desc>
    <defs></defs>
    <g id="Page-1" stroke="none" stroke-width="1" fill="none" fill-rule="evenodd">
        <g id="Staffing-date-select" transform="translate(-40.000000, -203.000000)" fill="#000000">
            <path d="M58.4960938,219.996094 L40.5078125,219.996094 C40.4166662,219.996094 40.3320316,219.973308 40.2539062,219.927734 C40.1757809,219.882161 40.1171877,219.826823 40.078125,219.761719 C40.0260414,219.683593 40,219.598959 40,219.507812 C40,219.416666 40.0195311,219.332032 40.0585938,219.253906 L49.0625,203.257812 C49.1015627,203.179687 49.1601559,203.117839 49.2382812,203.072266 C49.3164066,203.026692 49.4010412,203.003906 49.4921875,203.003906 C49.5833338,203.003906 49.6679684,203.026692 49.7460938,203.072266 C49.8242191,203.117839 49.8893227,203.179687 49.9414062,203.257812 L58.9453125,219.253906 C58.9843752,219.332032 59.0039062,219.416666 59.0039062,219.507812 C59.0039062,219.598959 58.9778648,219.683593 58.9257812,219.761719 C58.8867186,219.826823 58.8281254,219.882161 58.75,219.927734 C58.6718746,219.973308 58.58724,219.996094 58.4960938,219.996094 Z M41.3476562,219 L57.6367188,219 L49.4921875,204.527344 L41.3476562,219 Z M49.4921875,214.996094 C49.3619785,214.996094 49.2480474,214.947266 49.1503906,214.849609 C49.0527339,214.751953 49.0039062,214.638021 49.0039062,214.507812 L49.0039062,209.507812 C49.0039062,209.364583 49.0527339,209.244141 49.1503906,209.146484 C49.2480474,209.048828 49.3619785,209 49.4921875,209 C49.6354174,209 49.7558589,209.048828 49.8535156,209.146484 C49.9511724,209.244141 50,209.364583 50,209.507812 L50,214.507812 C50,214.638021 49.9511724,214.751953 49.8535156,214.849609 C49.7558589,214.947266 49.6354174,214.996094 49.4921875,214.996094 Z M49.4921875,218.003906 C49.3619785,218.003906 49.2480474,217.955079 49.1503906,217.857422 C49.0527339,217.759765 49.0039062,217.639324 49.0039062,217.496094 L49.0039062,216.5 C49.0039062,216.35677 49.0527339,216.236329 49.1503906,216.138672 C49.2480474,216.041015 49.3619785,215.992188 49.4921875,215.992188 C49.6354174,215.992188 49.7558589,216.041015 49.8535156,216.138672 C49.9511724,216.236329 50,216.35677 50,216.5 L50,217.496094 C50,217.639324 49.9511724,217.759765 49.8535156,217.857422 C49.7558589,217.955079 49.6354174,218.003906 49.4921875,218.003906 Z" id="warning"></path>
        </g>
    </g>
</svg>